<svg width="53" height="53" viewBox="0 0 53 53" fill="none" xmlns="http://www.w3.org/2000/svg">
<path d="M26.5 0C16.6789 0 8.6889 7.98996 8.6889 17.8111C8.6889 21.6381 9.88378 25.2841 12.1445 28.3564L25.639 48.389C25.8319 48.6754 26.1547 48.8472 26.5 48.8472C26.8454 48.8472 27.1681 48.6754 27.3611 48.389L40.8556 28.3566C43.1162 25.2841 44.3111 21.6382 44.3111 17.8112C44.3111 7.98996 36.3212 0 26.5 0ZM39.1672 27.1477C39.1542 27.1654 39.1414 27.1838 39.1293 27.2028L26.5 45.9507L13.8729 27.2058C13.8602 27.1859 13.8469 27.1666 13.8329 27.1476C11.826 24.4297 10.7653 21.2012 10.7653 17.811C10.7653 9.13494 17.824 2.07642 26.5 2.07642C35.1761 2.07642 42.2347 9.13505 42.2347 17.8111C42.2347 21.2012 41.174 24.4298 39.1672 27.1477Z" fill="white"/>
<path d="M33.7674 16.6629C33.194 16.6629 32.7292 17.1277 32.7292 17.7011C32.7292 21.1358 29.9348 23.9302 26.5001 23.9302C23.0653 23.9302 20.2709 21.1358 20.2709 17.7011C20.2709 14.2663 23.0653 11.4719 26.5001 11.4719C27.7485 11.4719 28.9526 11.8396 29.9822 12.5351C30.4574 12.8561 31.1027 12.7312 31.4237 12.2561C31.7447 11.781 31.6198 11.1356 31.1446 10.8146C29.7703 9.88628 28.1643 9.39551 26.5 9.39551C21.9202 9.39551 18.1944 13.1213 18.1944 17.7011C18.1944 22.2808 21.9202 26.0067 26.5 26.0067C31.0797 26.0067 34.8055 22.2808 34.8055 17.7011C34.8055 17.1277 34.3408 16.6629 33.7674 16.6629Z" fill="white"/>
<path d="M38.941 50.9233H14.0243C13.4509 50.9233 12.9861 51.3881 12.9861 51.9615C12.9861 52.5349 13.4509 52.9996 14.0243 52.9996H38.941C39.5144 52.9996 39.9792 52.5349 39.9792 51.9615C39.9793 51.3881 39.5144 50.9233 38.941 50.9233Z" fill="white"/>
<path d="M32.9368 13.248H32.916C32.3427 13.248 31.8779 13.7128 31.8779 14.2862C31.8779 14.8596 32.3427 15.3244 32.916 15.3244H32.9368C33.5102 15.3244 33.975 14.8596 33.975 14.2862C33.9751 13.7128 33.5102 13.248 32.9368 13.248Z" fill="white"/>
</svg>
