<svg width="55" height="55" viewBox="0 0 55 55" fill="none" xmlns="http://www.w3.org/2000/svg">
<g clip-path="url(#clip0_667_213)">
<path d="M46.75 37.5833H39.1902L40.9686 39.3617C41.3484 39.7413 41.6498 40.1921 41.8554 40.6883C42.0609 41.1844 42.1668 41.7162 42.1668 42.2533C42.1668 42.7904 42.0609 43.3222 41.8554 43.8183C41.6498 44.3145 41.3484 44.7653 40.9686 45.1449L36.4769 49.6366C35.702 50.4644 34.7649 51.1238 33.724 51.5737C32.6832 52.0237 31.5608 52.2545 30.4269 52.2518C29.5467 52.2448 28.6705 52.1322 27.8172 51.9163C23.3924 50.8328 18.0849 47.1497 11.5922 40.6551C0.199825 29.2628 -2.73809 21.1237 2.60883 15.774L7.10049 11.2823C7.85769 10.5217 8.88426 10.0903 9.95749 10.0817C11.0307 10.0732 12.0641 10.4881 12.8333 11.2365V11C12.836 8.81278 13.706 6.71591 15.2526 5.16932C16.7992 3.62272 18.8961 2.75267 21.0833 2.75H46.75C48.9372 2.75267 51.0341 3.62272 52.5807 5.16932C54.1273 6.71591 54.9973 8.81278 55 11V29.3333C54.9973 31.5206 54.1273 33.6174 52.5807 35.164C51.0341 36.7106 48.9372 37.5807 46.75 37.5833ZM8.40216 12.5785L3.91049 17.0702C2.26508 18.7202 -2.74268 23.7243 12.8938 39.3589C19.052 45.5253 24.2211 49.1508 28.2535 50.1417C29.4597 50.5236 30.7492 50.5579 31.9739 50.2404C33.1987 49.9229 34.3092 49.2667 35.178 48.3468L39.6697 43.8552C40.0922 43.4317 40.3296 42.8579 40.3296 42.2597C40.3296 41.6615 40.0922 41.0877 39.6697 40.6643L34.056 35.0497C33.8461 34.8384 33.5965 34.6707 33.3214 34.5563C33.0464 34.4419 32.7515 34.3831 32.4537 34.3833C32.1575 34.3835 31.8644 34.4425 31.5912 34.5569C31.318 34.6713 31.0703 34.8388 30.8623 35.0497L29.7422 36.1698C26.4073 39.5056 23.5088 40.2252 17.7732 34.4868C12.0377 28.7485 12.7517 25.85 16.0875 22.5106L17.2095 21.3886C17.4205 21.1794 17.588 20.9306 17.7023 20.6563C17.8166 20.3821 17.8755 20.0879 17.8755 19.7908C17.8755 19.4937 17.8166 19.1996 17.7023 18.9253C17.588 18.6511 17.4205 18.4022 17.2095 18.1931L11.5949 12.5785C11.1652 12.1673 10.5933 11.9378 9.99854 11.9378C9.40375 11.9378 8.83191 12.1673 8.40216 12.5785ZM21.0833 4.58333C19.5373 4.58334 18.0438 5.14457 16.8804 6.16275L31.284 14.0177C32.0908 14.4595 32.9959 14.6911 33.9157 14.6911C34.8356 14.6911 35.7407 14.4595 36.5475 14.0177L50.952 6.16183C49.7886 5.14426 48.2956 4.58339 46.75 4.58333H21.0833ZM53.1667 11C53.1665 9.79053 52.8219 8.60611 52.173 7.58542L37.4257 15.6273C36.3499 16.2173 35.1427 16.5266 33.9157 16.5266C32.6888 16.5266 31.4816 16.2173 30.4058 15.6273L15.6603 7.58633C15.0116 8.60675 14.6669 9.79083 14.6667 11V13.0598L18.5038 16.8969C18.8853 17.2764 19.1881 17.7276 19.3947 18.2244C19.6012 18.7213 19.7076 19.2541 19.7076 19.7922C19.7076 20.3303 19.6012 20.8631 19.3947 21.36C19.1881 21.8569 18.8853 22.308 18.5038 22.6875L17.3837 23.8068C15.1507 26.0407 13.5337 27.6568 19.0676 33.1843C24.6015 38.7118 26.2112 37.1003 28.4442 34.8673L29.5616 33.7498C29.9389 33.3671 30.3886 33.0631 30.8845 32.8557C31.3803 32.6483 31.9125 32.5415 32.45 32.5417H32.4573C32.996 32.5409 33.5295 32.6468 34.027 32.8534C34.5245 33.06 34.9762 33.3631 35.3558 33.7453L37.3569 35.75H46.75C48.4512 35.7481 50.0822 35.0714 51.2851 33.8685C52.4881 32.6655 53.1647 31.0345 53.1667 29.3333V11Z" fill="white"/>
<path d="M50.4166 25.6667C50.1735 25.6667 49.9404 25.5701 49.7685 25.3982C49.5966 25.2263 49.5 24.9931 49.5 24.75V14.6667C49.5 14.4236 49.5966 14.1904 49.7685 14.0185C49.9404 13.8466 50.1735 13.75 50.4166 13.75C50.6598 13.75 50.8929 13.8466 51.0648 14.0185C51.2367 14.1904 51.3333 14.4236 51.3333 14.6667V24.75C51.3333 24.9931 51.2367 25.2263 51.0648 25.3982C50.8929 25.5701 50.6598 25.6667 50.4166 25.6667Z" fill="white"/>
<path d="M50.4166 31.1667C50.1735 31.1667 49.9404 31.0701 49.7685 30.8982C49.5966 30.7263 49.5 30.4931 49.5 30.25V28.4167C49.5 28.1736 49.5966 27.9404 49.7685 27.7685C49.9404 27.5966 50.1735 27.5 50.4166 27.5C50.6598 27.5 50.8929 27.5966 51.0648 27.7685C51.2367 27.9404 51.3333 28.1736 51.3333 28.4167V30.25C51.3333 30.4931 51.2367 30.7263 51.0648 30.8982C50.8929 31.0701 50.6598 31.1667 50.4166 31.1667Z" fill="white"/>
<path d="M44 22.9165C44 23.4604 43.8387 23.9921 43.5365 24.4443C43.2344 24.8966 42.8049 25.249 42.3024 25.4572C41.7999 25.6653 41.2469 25.7198 40.7135 25.6137C40.1801 25.5076 39.69 25.2456 39.3055 24.8611C38.9209 24.4765 38.6589 23.9865 38.5528 23.453C38.4467 22.9196 38.5012 22.3666 38.7093 21.8641C38.9175 21.3616 39.2699 20.9321 39.7222 20.63C40.1744 20.3278 40.7061 20.1665 41.25 20.1665C41.9793 20.1665 42.6788 20.4562 43.1945 20.972C43.7103 21.4877 44 22.1872 44 22.9165ZM40.3333 22.9165C40.3333 23.0978 40.3871 23.275 40.4878 23.4258C40.5885 23.5765 40.7317 23.694 40.8992 23.7634C41.0667 23.8328 41.251 23.8509 41.4288 23.8156C41.6066 23.7802 41.77 23.6929 41.8982 23.5647C42.0264 23.4365 42.1137 23.2732 42.1491 23.0953C42.1844 22.9175 42.1663 22.7332 42.0969 22.5657C42.0275 22.3982 41.91 22.255 41.7593 22.1543C41.6085 22.0536 41.4313 21.9998 41.25 21.9998C41.0069 21.9998 40.7737 22.0964 40.6018 22.2683C40.4299 22.4402 40.3333 22.6734 40.3333 22.9165Z" fill="white"/>
<path d="M26.5834 25.6665C26.0395 25.6665 25.5078 25.5052 25.0556 25.203C24.6033 24.9009 24.2508 24.4714 24.0427 23.9689C23.8346 23.4664 23.7801 22.9135 23.8862 22.38C23.9923 21.8466 24.2542 21.3566 24.6388 20.972C25.0234 20.5874 25.5134 20.3255 26.0469 20.2193C26.5803 20.1132 27.1333 20.1677 27.6358 20.3758C28.1382 20.584 28.5677 20.9365 28.8699 21.3887C29.1721 21.8409 29.3334 22.3726 29.3334 22.9165C29.3334 23.6459 29.0436 24.3453 28.5279 24.8611C28.0122 25.3768 27.3127 25.6665 26.5834 25.6665ZM26.5834 21.9998C26.4021 21.9998 26.2248 22.0536 26.0741 22.1543C25.9234 22.255 25.8059 22.3982 25.7365 22.5657C25.6671 22.7332 25.649 22.9175 25.6843 23.0953C25.7197 23.2732 25.807 23.4365 25.9352 23.5647C26.0634 23.6929 26.2267 23.7802 26.4045 23.8156C26.5824 23.8509 26.7667 23.8328 26.9342 23.7634C27.1017 23.694 27.2448 23.5765 27.3456 23.4258C27.4463 23.275 27.5 23.0978 27.5 22.9165C27.5 22.6734 27.4035 22.4402 27.2316 22.2683C27.0596 22.0964 26.8265 21.9998 26.5834 21.9998Z" fill="white"/>
<path d="M39.369 27.7898C39.325 27.9282 38.1938 31.1668 33.9167 31.1668C29.6395 31.1668 28.5083 27.9282 28.4634 27.7898C28.4254 27.6754 28.4102 27.5547 28.4189 27.4345C28.4275 27.3143 28.4597 27.1969 28.5137 27.0892C28.5676 26.9814 28.6423 26.8853 28.7334 26.8064C28.8245 26.7275 28.9302 26.6673 29.0446 26.6293C29.159 26.5912 29.2797 26.5761 29.3999 26.5847C29.5201 26.5933 29.6374 26.6255 29.7452 26.6795C29.853 26.7335 29.949 26.8081 30.028 26.8992C30.1069 26.9903 30.1671 27.0961 30.2051 27.2104C30.2097 27.2315 30.9439 29.3334 33.9167 29.3334C36.8262 29.3334 37.5962 27.3049 37.6328 27.2022C37.7108 26.9718 37.877 26.7819 38.095 26.6741C38.313 26.5663 38.5648 26.5495 38.7952 26.6274C39.0255 26.7054 39.2155 26.8716 39.3233 27.0896C39.4311 27.3076 39.4478 27.5594 39.3699 27.7898H39.369Z" fill="white"/>
<path d="M44.4134 19.1475C44.2857 19.2141 44.144 19.2493 44 19.2502C43.831 19.2497 43.6654 19.2031 43.5211 19.1151C43.3767 19.0272 43.2593 18.9015 43.1814 18.7515C42.9936 18.3877 42.7192 18.0757 42.3824 17.8429C42.0456 17.6102 41.6567 17.4638 41.25 17.4168C41.0069 17.4168 40.7737 17.3203 40.6018 17.1483C40.4299 16.9764 40.3333 16.7433 40.3333 16.5002C40.3333 16.257 40.4299 16.0239 40.6018 15.852C40.7737 15.6801 41.0069 15.5835 41.25 15.5835C41.9971 15.6298 42.7193 15.8699 43.3454 16.2803C43.9715 16.6907 44.4799 17.2571 44.8204 17.9237C44.9274 18.1402 44.9447 18.3902 44.8685 18.6193C44.7923 18.8484 44.6287 19.0382 44.4134 19.1475Z" fill="white"/>
<path d="M26.5833 17.4168C26.1767 17.4634 25.7878 17.6093 25.4509 17.8415C25.1139 18.0738 24.8392 18.3853 24.651 18.7487C24.5416 18.966 24.3504 19.1308 24.1194 19.2071C23.8885 19.2833 23.6367 19.2647 23.4195 19.1553C23.2022 19.0459 23.0374 18.8547 22.9611 18.6237C22.8849 18.3928 22.9035 18.141 23.0129 17.9237C23.3534 17.2571 23.8618 16.6907 24.4879 16.2803C25.114 15.8699 25.8362 15.6298 26.5833 15.5835C26.8264 15.5835 27.0596 15.6801 27.2315 15.852C27.4034 16.0239 27.5 16.257 27.5 16.5002C27.5 16.7433 27.4034 16.9764 27.2315 17.1483C27.0596 17.3203 26.8264 17.4168 26.5833 17.4168Z" fill="white"/>
</g>
<defs>
<clipPath id="clip0_667_213">
<rect width="55" height="55" fill="white" transform="matrix(-1 0 0 1 55 0)"/>
</clipPath>
</defs>
</svg>
